<svg xmlns="http://www.w3.org/2000/svg" width="230" height="230" viewBox="0 0 230 230">
  <g id="Grupo_50" data-name="Grupo 50" transform="translate(-42 -253)">
    <g id="selfie-of-a-boy-on-phone-screen-in-his-hand-svgrepo-com" transform="translate(105.223 309.856)">
      <g id="Grupo_41" data-name="Grupo 41" transform="translate(0)">
        <path id="Caminho_44" data-name="Caminho 44" d="M183.471,152.988l-.347.747c-.636-1.051-1.525-2.644-2.524-4.433a167.933,167.933,0,0,0-10.665-17.342l-.081-.1c-3.97-4.912-8.381-7.3-13.484-7.3a18.392,18.392,0,0,0-5.189.79c-6.042,1.782-6.975,5.6-7.095,7.153-.235,3,2.071,8.635,8.242,11.554l.005,4.47c3.066-.822,6.825-2.471,7.127-4.928a4.724,4.724,0,0,0-2.65-4.87c-5.5-2.61-6.509-4.9-6.423-5.736.387-3.707,8.174-5.029,14.51,2.789a163.894,163.894,0,0,1,10.184,16.605c.881,1.578,1.643,2.944,2.277,4.022l-18.085,39.022a18.3,18.3,0,0,0-4.912-.7c-.981,0-1.88.081-2.755.161-.961.086-1.956.176-3.231.176-.848,0-1.732-.039-2.7-.118-5.762-.472-15-4.967-19.23-7.356-2.088-1.537-2.281-2.531-1.9-4.566H118.16c-.351,3.011.169,6.514,4.72,9.791l.137.1.146.083c1.354.771,13.472,7.551,21.992,8.248,1.144.094,2.2.14,3.219.14,1.56,0,2.749-.107,3.807-.2.8-.072,1.484-.134,2.18-.134a14.993,14.993,0,0,1,5.476,1.2l.618.245-.324.7L175.85,210.5l23.34-50.2Z" transform="translate(-96.305 -94.878)" fill="#fff"/>
        <path id="Caminho_45" data-name="Caminho 45" d="M79.807,76.017v-23.9l-1.7-1.193a18.191,18.191,0,0,1-4.57-3.833V69.113H32.987V15.933H73.54v14.8A14.693,14.693,0,0,1,78.9,27.99c.3-.089.6-.169.9-.245V9.028A9.028,9.028,0,0,0,70.778,0H35.749a9.028,9.028,0,0,0-9.028,9.028V76.017a9.028,9.028,0,0,0,9.028,9.029H70.779A9.028,9.028,0,0,0,79.807,76.017ZM67.588,8.327a1.936,1.936,0,1,1-1.936,1.936A1.936,1.936,0,0,1,67.588,8.327Zm-22.7.364H61.643v3.162H44.885Zm8.379,69.4a3.372,3.372,0,1,1,3.372-3.372A3.372,3.372,0,0,1,53.264,78.094Z" transform="translate(-26.721)" fill="#fff"/>
        <path id="Caminho_46" data-name="Caminho 46" d="M146.444,151.724a1.8,1.8,0,1,0-1.8-1.8A1.8,1.8,0,0,0,146.444,151.724Z" transform="translate(-116.549 -112.835)" fill="#fff"/>
        <path id="Caminho_47" data-name="Caminho 47" d="M115.091,149.927a1.8,1.8,0,1,0-1.8,1.8A1.8,1.8,0,0,0,115.091,149.927Z" transform="translate(-91.295 -112.835)" fill="#fff"/>
        <path id="Caminho_48" data-name="Caminho 48" d="M127.861,179.856a.678.678,0,0,0-.949-.929,5.08,5.08,0,0,1-4.84,0,.678.678,0,0,0-.947.932,4.536,4.536,0,0,0,6.736,0Z" transform="translate(-98.547 -136.205)" fill="#fff"/>
        <path id="Caminho_49" data-name="Caminho 49" d="M84.286,138.764v4.343H109.3v-4.343a11.915,11.915,0,0,0-7.617-11.111A12.227,12.227,0,1,0,89.11,106.848a3.905,3.905,0,0,1-1.881-1.459,3.582,3.582,0,0,0,1.1,2.1c-.1.086-.188.176-.282.265a3.979,3.979,0,0,1-1.949-1.022,3.535,3.535,0,0,0,1.3,1.7,12.216,12.216,0,0,0,4.209,19.336A11.917,11.917,0,0,0,84.286,138.764Zm2.032-22.192a10.151,10.151,0,0,1,2.358-6.513c1.324,1.219,4.336,2.071,7.841,2.071s6.517-.852,7.841-2.071a10.2,10.2,0,1,1-18.04,6.513Z" transform="translate(-70.57 -79.48)" fill="#fff"/>
      </g>
    </g>
    <g id="Elipse_8" data-name="Elipse 8" transform="translate(42 253)" fill="none" stroke="#fff" stroke-width="1">
      <circle cx="115" cy="115" r="115" stroke="none"/>
      <circle cx="115" cy="115" r="114.5" fill="none"/>
    </g>
  </g>
</svg>
